<?xml version="1.0" encoding="UTF-8"?>
<svg width="12px" height="12px" viewBox="0 0 12 12" version="1.1" xmlns="http://www.w3.org/2000/svg" xmlns:xlink="http://www.w3.org/1999/xlink">
    <title></title>
    <g id="Web_overview" stroke="none" stroke-width="1" fill="none" fill-rule="evenodd">
        <g id="Overview/iOS_touch-area" transform="translate(-1369.000000, -1367.500000)">
            <g id="Group-14" transform="translate(420.000000, 342.000000)">
                <g id="Group-10" transform="translate(0.000000, 706.000000)">
                    <g id="Group-9" transform="translate(0.000000, 52.000000)">
                        <g id="Table/General/Text/1line-Copy-45" transform="translate(804.000000, 191.000000)">
                            <rect id="Rectangle" stroke="#A5A5A5" fill="#FFFFFF" x="0" y="0" width="270" height="124"></rect>
                            <text id="Content" opacity="0.800000012" font-family="SamsungOneKorean-400, SamsungOneKorean" font-size="14" font-weight="normal" line-spacing="20"></text>
                        </g>
                    </g>
                    <g id="Monthspinner-guide-Copy" transform="translate(807.000000, 266.000000)">
                        <g id="Monthspinner" transform="translate(12.000000, 41.000000)">
                            <rect id="Rectangle" fill-opacity="0.1" fill="#000000" x="0" y="0" width="154" height="36" rx="18"></rect>
                            <g id="-FAVORITE-CARD-/-Dropdown-&amp;-Graph-:-Energy-Usage-/-Filter-@K" transform="translate(12.000000, 6.000000)" fill="#505050" opacity="0.699999988">
                                <g id="Filter" transform="translate(0.000000, 0.500000)">
                                    <g id="service/btn/dropdown_dark" transform="translate(118.000000, 6.000000)">
                                        <polygon id="home_button_expand_open" transform="translate(6.000000, 6.000000) rotate(-90.000000) translate(-6.000000, -6.000000) " points="8.27371956 1 3 6.00031115 8.27371956 11 9 10.2517995 4.51574307 6.00031115 9 1.74840797"></polygon>
                                    </g>
                                </g>
                            </g>
                        </g>
                        <line x1="142" y1="77.5" x2="142" y2="32.5" id="Line-Copy-8" stroke="#FF5656" stroke-width="0.5" stroke-dasharray="1,1"></line>
                        <line x1="154" y1="77.5" x2="154" y2="32.5" id="Line-Copy-9" stroke="#FF5656" stroke-width="0.5" stroke-dasharray="1,1"></line>
                        <line x1="178.734421" y1="59.5" x2="0.265578635" y2="59.5" id="Line-Copy-2" stroke="#FF5656" stroke-width="0.5" stroke-dasharray="1,1"></line>
                    </g>
                </g>
            </g>
            <g id="Group-14" transform="translate(420.000000, 342.000000)">
                <g id="Group-10" transform="translate(0.000000, 706.000000)">
                    <g id="Group-9" transform="translate(0.000000, 52.000000)">
                        <g id="Table/General/Text/1line-Copy-45" transform="translate(804.000000, 191.000000)">
                            <rect id="Rectangle" stroke="#A5A5A5" fill="#FFFFFF" x="0" y="0" width="270" height="124"></rect>
                            <text id="Content" opacity="0.800000012" font-family="SamsungOneKorean-400, SamsungOneKorean" font-size="14" font-weight="normal" line-spacing="20"></text>
                        </g>
                    </g>
                    <g id="Monthspinner-guide-Copy" transform="translate(807.000000, 266.000000)">
                        <g id="Monthspinner" transform="translate(12.000000, 41.000000)">
                            <rect id="Rectangle" fill-opacity="0.1" fill="#000000" x="0" y="0" width="154" height="36" rx="18"></rect>
                            <g id="-FAVORITE-CARD-/-Dropdown-&amp;-Graph-:-Energy-Usage-/-Filter-@K" transform="translate(12.000000, 6.000000)" fill="#505050" opacity="0.699999988">
                                <g id="Filter" transform="translate(0.000000, 0.500000)">
                                    <g id="service/btn/dropdown_dark" transform="translate(118.000000, 6.000000)">
                                        <polygon id="home_button_expand_open" transform="translate(6.000000, 6.000000) rotate(-90.000000) translate(-6.000000, -6.000000) " points="8.27371956 1 3 6.00031115 8.27371956 11 9 10.2517995 4.51574307 6.00031115 9 1.74840797"></polygon>
                                    </g>
                                </g>
                            </g>
                        </g>
                        <line x1="142" y1="77.5" x2="142" y2="32.5" id="Line-Copy-8" stroke="#FF5656" stroke-width="0.5" stroke-dasharray="1,1"></line>
                        <line x1="154" y1="77.5" x2="154" y2="32.5" id="Line-Copy-9" stroke="#FF5656" stroke-width="0.5" stroke-dasharray="1,1"></line>
                        <line x1="178.734421" y1="59.5" x2="0.265578635" y2="59.5" id="Line-Copy-2" stroke="#FF5656" stroke-width="0.5" stroke-dasharray="1,1"></line>
                    </g>
                </g>
                <g id="Group-10" transform="translate(0.000000, 706.000000)">
                    <g id="Group-9" transform="translate(0.000000, 52.000000)">
                        <g id="Table/General/Text/1line-Copy-45" transform="translate(804.000000, 191.000000)">
                            <rect id="Rectangle" stroke="#A5A5A5" fill="#FFFFFF" x="0" y="0" width="270" height="124"></rect>
                            <text id="Content" opacity="0.800000012" font-family="SamsungOneKorean-400, SamsungOneKorean" font-size="14" font-weight="normal" line-spacing="20"></text>
                        </g>
                    </g>
                    <g id="Monthspinner-guide-Copy" transform="translate(807.000000, 266.000000)">
                        <g id="Monthspinner" transform="translate(12.000000, 41.000000)">
                            <rect id="Rectangle" fill-opacity="0.1" fill="#000000" x="0" y="0" width="154" height="36" rx="18"></rect>
                            <g id="-FAVORITE-CARD-/-Dropdown-&amp;-Graph-:-Energy-Usage-/-Filter-@K" transform="translate(12.000000, 6.000000)" fill="#505050" opacity="0.699999988">
                                <g id="Filter" transform="translate(0.000000, 0.500000)">
                                    <g id="service/btn/dropdown_dark" transform="translate(118.000000, 6.000000)">
                                        <polygon id="home_button_expand_open" transform="translate(6.000000, 6.000000) rotate(-90.000000) translate(-6.000000, -6.000000) " points="8.27371956 1 3 6.00031115 8.27371956 11 9 10.2517995 4.51574307 6.00031115 9 1.74840797"></polygon>
                                    </g>
                                </g>
                            </g>
                        </g>
                        <line x1="142" y1="77.5" x2="142" y2="32.5" id="Line-Copy-8" stroke="#FF5656" stroke-width="0.5" stroke-dasharray="1,1"></line>
                        <line x1="154" y1="77.5" x2="154" y2="32.5" id="Line-Copy-9" stroke="#FF5656" stroke-width="0.5" stroke-dasharray="1,1"></line>
                        <line x1="178.734421" y1="59.5" x2="0.265578635" y2="59.5" id="Line-Copy-2" stroke="#FF5656" stroke-width="0.5" stroke-dasharray="1,1"></line>
                    </g>
                    <g id="Monthspinner-guide-Copy" transform="translate(807.000000, 266.000000)">
                        <g id="Monthspinner" transform="translate(12.000000, 41.000000)">
                            <rect id="Rectangle" fill-opacity="0.1" fill="#000000" x="0" y="0" width="154" height="36" rx="18"></rect>
                            <g id="-FAVORITE-CARD-/-Dropdown-&amp;-Graph-:-Energy-Usage-/-Filter-@K" transform="translate(12.000000, 6.000000)" fill="#505050" opacity="0.699999988">
                                <g id="Filter" transform="translate(0.000000, 0.500000)">
                                    <g id="service/btn/dropdown_dark" transform="translate(118.000000, 6.000000)">
                                        <polygon id="home_button_expand_open" transform="translate(6.000000, 6.000000) rotate(-90.000000) translate(-6.000000, -6.000000) " points="8.27371956 1 3 6.00031115 8.27371956 11 9 10.2517995 4.51574307 6.00031115 9 1.74840797"></polygon>
                                    </g>
                                </g>
                            </g>
                        </g>
                        <g id="Monthspinner" transform="translate(12.000000, 41.000000)">
                            <rect id="Rectangle" fill-opacity="0.1" fill="#000000" x="0" y="0" width="154" height="36" rx="18"></rect>
                            <g id="-FAVORITE-CARD-/-Dropdown-&amp;-Graph-:-Energy-Usage-/-Filter-@K" transform="translate(12.000000, 6.500000)" fill="#505050" opacity="0.699999988">
                                <g id="service/btn/dropdown_dark" transform="translate(118.000000, 6.000000)">
                                    <polygon id="home_button_expand_open" transform="translate(6.000000, 6.000000) rotate(-90.000000) translate(-6.000000, -6.000000) " points="8.27371956 1 3 6.00031115 8.27371956 11 9 10.2517995 4.51574307 6.00031115 9 1.74840797"></polygon>
                                </g>
                            </g>
                            <g id="-FAVORITE-CARD-/-Dropdown-&amp;-Graph-:-Energy-Usage-/-Filter-@K" transform="translate(12.000000, 6.500000)" fill="#505050" opacity="0.699999988">
                                <g id="service/btn/dropdown_dark" transform="translate(118.000000, 6.000000)">
                                    <polygon id="home_button_expand_open" transform="translate(6.000000, 6.000000) rotate(-90.000000) translate(-6.000000, -6.000000) " points="8.27371956 1 3 6.00031115 8.27371956 11 9 10.2517995 4.51574307 6.00031115 9 1.74840797"></polygon>
                                </g>
                                <g id="Filter">
                                    <g id="service/btn/dropdown_dark" transform="translate(118.000000, 6.000000)">
                                        <polygon id="home_button_expand_open" transform="translate(6.000000, 6.000000) rotate(-90.000000) translate(-6.000000, -6.000000) " points="8.27371956 1 3 6.00031115 8.27371956 11 9 10.2517995 4.51574307 6.00031115 9 1.74840797"></polygon>
                                    </g>
                                    <g id="service/btn/dropdown_dark" transform="translate(118.000000, 6.000000)">
                                        <polygon id="home_button_expand_open" transform="translate(6.000000, 6.000000) rotate(-90.000000) translate(-6.000000, -6.000000) " points="8.27371956 1 3 6.00031115 8.27371956 11 9 10.2517995 4.51574307 6.00031115 9 1.74840797"></polygon>
                                    </g>
                                    <g id="service/btn/dropdown_dark" transform="translate(118.000000, 6.000000)">
                                        <polygon id="home_button_expand_open" transform="translate(6.000000, 6.000000) rotate(-90.000000) translate(-6.000000, -6.000000) " points="8.27371956 1 3 6.00031115 8.27371956 11 9 10.2517995 4.51574307 6.00031115 9 1.74840797"></polygon>
                                    </g>
                                </g>
                            </g>
                        </g>
                        <line x1="142" y1="77.5" x2="142" y2="32.5" id="Line-Copy-8" stroke="#FF5656" stroke-width="0.5" stroke-dasharray="1,1"></line>
                        <line x1="154" y1="77.5" x2="154" y2="32.5" id="Line-Copy-9" stroke="#FF5656" stroke-width="0.5" stroke-dasharray="1,1"></line>
                        <line x1="178.734421" y1="59.5" x2="0.265578635" y2="59.5" id="Line-Copy-2" stroke="#FF5656" stroke-width="0.5" stroke-dasharray="1,1"></line>
                    </g>
                </g>
            </g>
        </g>
    </g>
</svg>