<?xml version="1.0" encoding="UTF-8"?>
<svg width="28px" height="28px" viewBox="0 0 28 28" version="1.1" xmlns="http://www.w3.org/2000/svg" xmlns:xlink="http://www.w3.org/1999/xlink">
    <title>SVG_mdpi/visitor_button_previous</title>
    <g id="ServicePlugin_1" stroke="none" stroke-width="1" fill="none" fill-rule="evenodd">
        <g id="serviceplugin/visitorspopup" transform="translate(-548.000000, -3055.000000)">
            <g id="Group-27" transform="translate(400.000000, 2629.000000)">
                <g id="Group-11" transform="translate(148.000000, 406.000000)">
                    <g id="Group-6" transform="translate(0.000000, 20.000000)">
                        <g id="@svg-area-copy-4" fill="#36F3F6" opacity="0.4">
                            <rect id="Rectangle" x="0" y="0" width="28" height="28"></rect>
                        </g>
                        <g id="visitor_button_previous" fill="#8E8E8E">
                            <polygon points="16.2259834 8 10 13.9996338 16.2257308 20 16.9994948 19.2546842 11.5477806 13.9996338 17 8.74555996"></polygon>
                        </g>
                    </g>
                </g>
            </g>
        </g>
        <g id="serviceplugin/visitorspopup" transform="translate(-548.000000, -3055.000000)">
            <g id="Group-27" transform="translate(400.000000, 2629.000000)">
                <g id="Group-11" transform="translate(148.000000, 406.000000)">
                    <g id="Group-6" transform="translate(0.000000, 20.000000)">
                        <g id="@svg-area-copy-4" fill="#36F3F6" opacity="0.4">
                            <rect id="Rectangle" x="0" y="0" width="28" height="28"></rect>
                        </g>
                        <g id="visitor_button_previous" fill="#8E8E8E">
                            <polygon points="16.2259834 8 10 13.9996338 16.2257308 20 16.9994948 19.2546842 11.5477806 13.9996338 17 8.74555996"></polygon>
                        </g>
                    </g>
                </g>
            </g>
            <g id="Group-27" transform="translate(400.000000, 2629.000000)">
                <g id="Group-11" transform="translate(148.000000, 406.000000)">
                    <g id="Group-6" transform="translate(0.000000, 20.000000)">
                        <g id="@svg-area-copy-4" fill="#36F3F6" opacity="0.4">
                            <rect id="Rectangle" x="0" y="0" width="28" height="28"></rect>
                        </g>
                        <g id="visitor_button_previous" fill="#8E8E8E">
                            <polygon points="16.2259834 8 10 13.9996338 16.2257308 20 16.9994948 19.2546842 11.5477806 13.9996338 17 8.74555996"></polygon>
                        </g>
                    </g>
                </g>
                <g id="Group-11" transform="translate(148.000000, 406.000000)">
                    <g id="Group-6" transform="translate(0.000000, 20.000000)">
                        <g id="@svg-area-copy-4" fill="#36F3F6" opacity="0.4">
                            <rect id="Rectangle" x="0" y="0" width="28" height="28"></rect>
                        </g>
                        <g id="visitor_button_previous" fill="#8E8E8E">
                            <polygon points="16.2259834 8 10 13.9996338 16.2257308 20 16.9994948 19.2546842 11.5477806 13.9996338 17 8.74555996"></polygon>
                        </g>
                    </g>
                    <g id="Group-6" transform="translate(0.000000, 20.000000)">
                        <g id="@svg-area-copy-4" fill="#36F3F6" opacity="0.4">
                            <rect id="Rectangle" x="0" y="0" width="28" height="28"></rect>
                        </g>
                        <g id="visitor_button_previous" fill="#8E8E8E">
                            <polygon points="16.2259834 8 10 13.9996338 16.2257308 20 16.9994948 19.2546842 11.5477806 13.9996338 17 8.74555996"></polygon>
                        </g>
                        <g id="visitor_button_previous" fill="#8E8E8E">
                            <polygon points="16.2259834 8 10 13.9996338 16.2257308 20 16.9994948 19.2546842 11.5477806 13.9996338 17 8.74555996"></polygon>
                        </g>
                    </g>
                </g>
            </g>
        </g>
    </g>
</svg>