<?xml version="1.0" encoding="UTF-8"?>
<svg width="28px" height="29px" viewBox="0 0 28 29" version="1.1" xmlns="http://www.w3.org/2000/svg" xmlns:xlink="http://www.w3.org/1999/xlink">
    <title>SVG_mdpi/visitor_button_bg</title>
    <defs>
        <rect id="path-1" x="0" y="0" width="312" height="312" rx="8"></rect>
        <rect id="path-3" x="0" y="0" width="312" height="312"></rect>
        <path d="M102.537167,109.443583 C132.758333,109.443583 157.266417,84.9504167 157.266417,54.72925 C157.266417,24.4931667 132.758333,0 102.537167,0 C72.3309167,0 47.8228333,24.4931667 47.8228333,54.72925 C47.8228333,84.9504167 72.3309167,109.443583 102.537167,109.443583 M102.537167,132.867225 C45.9135,132.867225 1.42108547e-14,171.128475 1.42108547e-14,212.373058 L1.42108547e-14,223.918558 C1.42108547e-14,232.063058 7.35391667,238.671142 16.4381667,238.671142 L188.651083,238.671142 C197.735333,238.671142 205.104167,232.063058 205.104167,223.918558 L205.104167,212.373058 C205.104167,171.128475 159.17575,132.867225 102.537167,132.867225" id="path-5"></path>
        <rect id="path-7" x="0" y="0" width="312" height="312" rx="8"></rect>
        <rect id="path-9" x="0" y="0" width="312" height="312"></rect>
        <path d="M102.537167,109.443583 C132.758333,109.443583 157.266417,84.9504167 157.266417,54.72925 C157.266417,24.4931667 132.758333,0 102.537167,0 C72.3309167,0 47.8228333,24.4931667 47.8228333,54.72925 C47.8228333,84.9504167 72.3309167,109.443583 102.537167,109.443583 M102.537167,132.867225 C45.9135,132.867225 1.42108547e-14,171.128475 1.42108547e-14,212.373058 L1.42108547e-14,223.918558 C1.42108547e-14,232.063058 7.35391667,238.671142 16.4381667,238.671142 L188.651083,238.671142 C197.735333,238.671142 205.104167,232.063058 205.104167,223.918558 L205.104167,212.373058 C205.104167,171.128475 159.17575,132.867225 102.537167,132.867225" id="path-11"></path>
        <rect id="path-13" x="0" y="0" width="312" height="312" rx="8"></rect>
        <rect id="path-15" x="0" y="0" width="312" height="312"></rect>
        <path d="M102.537167,109.443583 C132.758333,109.443583 157.266417,84.9504167 157.266417,54.72925 C157.266417,24.4931667 132.758333,0 102.537167,0 C72.3309167,0 47.8228333,24.4931667 47.8228333,54.72925 C47.8228333,84.9504167 72.3309167,109.443583 102.537167,109.443583 M102.537167,132.867225 C45.9135,132.867225 1.42108547e-14,171.128475 1.42108547e-14,212.373058 L1.42108547e-14,223.918558 C1.42108547e-14,232.063058 7.35391667,238.671142 16.4381667,238.671142 L188.651083,238.671142 C197.735333,238.671142 205.104167,232.063058 205.104167,223.918558 L205.104167,212.373058 C205.104167,171.128475 159.17575,132.867225 102.537167,132.867225" id="path-17"></path>
        <rect id="path-19" x="0" y="0" width="312" height="312" rx="8"></rect>
        <rect id="path-21" x="0" y="0" width="312" height="312"></rect>
        <path d="M102.537167,109.443583 C132.758333,109.443583 157.266417,84.9504167 157.266417,54.72925 C157.266417,24.4931667 132.758333,0 102.537167,0 C72.3309167,0 47.8228333,24.4931667 47.8228333,54.72925 C47.8228333,84.9504167 72.3309167,109.443583 102.537167,109.443583 M102.537167,132.867225 C45.9135,132.867225 1.42108547e-14,171.128475 1.42108547e-14,212.373058 L1.42108547e-14,223.918558 C1.42108547e-14,232.063058 7.35391667,238.671142 16.4381667,238.671142 L188.651083,238.671142 C197.735333,238.671142 205.104167,232.063058 205.104167,223.918558 L205.104167,212.373058 C205.104167,171.128475 159.17575,132.867225 102.537167,132.867225" id="path-23"></path>
        <rect id="path-25" x="0" y="0" width="312" height="312" rx="8"></rect>
        <rect id="path-27" x="0" y="0" width="312" height="312"></rect>
        <rect id="path-29" x="0" y="0" width="312" height="312" rx="8"></rect>
        <rect id="path-31" x="0" y="0" width="312" height="312"></rect>
        <rect id="path-33" x="0" y="0" width="312" height="312" rx="8"></rect>
        <rect id="path-35" x="0" y="0" width="312" height="312"></rect>
    </defs>
    <g id="ServicePlugin_1" stroke="none" stroke-width="1" fill="none" fill-rule="evenodd">
        <g id="serviceplugin/visitorspopup" transform="translate(-688.000000, -2326.000000)">
            <g id="Group-26" transform="translate(400.000000, 2162.000000)">
                <g id="Group-2" transform="translate(20.000000, 23.000000)">
                    <g id="Rectangle">
                        <g id="visitor/image_dummy">
                            <rect id="Background" x="0" y="0" width="312" height="312"></rect>
                            <g id="visitor/image_nodata_bg">
                                <mask id="mask-2" fill="white">
                                    <use xlink:href="#path-1"></use>
                                </mask>
                                <g id="image"></g>
                                <g id="Group" mask="url(#mask-2)">
                                    <g transform="translate(0.000000, 32.000000)">
                                        <g id="Group-2" opacity="0.6" stroke-width="1" fill="none" transform="translate(13.000000, 0.000000)">
                                            <path d="M8.70086714,121.203808 L36.7756501,103.892699 L64.8504331,121.203808 L64.8504331,139.177003 L64.8508922,220.771985 L8.70086714,220.771985 L8.70086714,121.203808 Z" id="Combined-Shape" fill="#F7F7F7"></path>
                                            <g id="Group-4" transform="translate(97.631838, 0.000000)">
                                                <polygon id="Path" fill="#F3F3F3" points="0 220.771985 0 34.0764814 44.273839 0 88.5442702 34.0764814 88.5442702 220.771985"></polygon>
                                                <path d="M51.764924,46.846246 L62.3183212,46.846246 L62.3183212,63.16134 L51.764924,63.16134 L51.764924,46.846246 Z M51.764924,142.08122 L62.3183212,142.08122 L62.3183212,158.396314 L51.764924,158.396314 L51.764924,142.08122 Z M26.0942124,46.846246 L36.6476096,46.846246 L36.6476096,63.16134 L26.0942124,63.16134 L26.0942124,46.846246 Z M26.0942124,142.08122 L36.6476096,142.08122 L36.6476096,158.396314 L26.0942124,158.396314 L26.0942124,142.08122 Z M51.764924,78.3123586 L62.3183212,78.3123586 L62.3183212,94.6274526 L51.764924,94.6274526 L51.764924,78.3123586 Z M51.764924,173.547333 L62.3183212,173.547333 L62.3183212,189.862427 L51.764924,189.862427 L51.764924,173.547333 Z M26.0942124,78.3123586 L36.6476096,78.3123586 L36.6476096,94.6274526 L26.0942124,94.6274526 L26.0942124,78.3123586 Z M26.0942124,173.547333 L36.6476096,173.547333 L36.6476096,189.862427 L26.0942124,189.862427 L26.0942124,173.547333 Z M51.764924,109.778471 L62.3183212,109.778471 L62.3183212,126.093565 L51.764924,126.093565 L51.764924,109.778471 Z M51.764924,205.013445 L62.3183212,205.013445 L62.3183212,221.328539 L51.764924,221.328539 L51.764924,205.013445 Z M26.0942124,109.778471 L36.6476096,109.778471 L36.6476096,126.093565 L26.0942124,126.093565 L26.0942124,109.778471 Z M26.0942124,205.013445 L36.6476096,205.013445 L36.6476096,221.328539 L26.0942124,221.328539 L26.0942124,205.013445 Z" id="Combined-Shape" fill="#FFFFFF" fill-rule="nonzero"></path>
                                            </g>
                                            <rect id="Rectangle" fill="#EFEFEF" fill-rule="nonzero" x="45.8010459" y="54.1107807" width="51.8307923" height="166.661204"></rect>
                                            <path d="M56.8590116,67.097368 L87.0936405,67.097368 L87.0936405,80.0839554 L56.8590116,80.0839554 L56.8590116,67.097368 Z M56.8590116,90.9061115 L87.0936405,90.9061115 L87.0936405,103.892699 L56.8590116,103.892699 L56.8590116,90.9061115 Z M56.8590116,114.714855 L87.0936405,114.714855 L87.0936405,127.701442 L56.8590116,127.701442 L56.8590116,114.714855 Z M56.8590116,138.523599 L87.0936405,138.523599 L87.0936405,151.510186 L56.8590116,151.510186 L56.8590116,138.523599 Z M56.8590116,162.332342 L87.0936405,162.332342 L87.0936405,175.318929 L56.8590116,175.318929 L56.8590116,162.332342 Z M56.8590116,186.141085 L87.0936405,186.141085 L87.0936405,199.127673 L56.8590116,199.127673 L56.8590116,186.141085 Z" id="Combined-Shape" fill="#FFFFFF" fill-rule="nonzero"></path>
                                            <path d="M207.772272,121.203808 L235.847055,103.892699 L263.921838,121.203808 L263.921838,139.177003 L263.922297,220.771985 L207.772272,220.771985 L207.772272,121.203808 Z" id="Combined-Shape-Copy" fill="#F7F7F7"></path>
                                            <g id="Group-3" transform="translate(181.856876, 77.919524)" fill-rule="nonzero">
                                                <path d="M53.9904087,142.852461 L0,142.852461 L0,10.8221561 L26.9964758,10.8221561 L53.9904087,10.8221561 L53.9904087,142.852461 L53.9904087,142.852461 Z M53.9904087,8.65772491 L0,8.65772491 L0,0 L26.9964758,0 L53.9904087,0 L53.9904087,8.65772491 L53.9904087,8.65772491 Z" id="Combined-Shape" fill="#EFEFEF"></path>
                                                <path d="M11.0579657,19.479881 L41.2925946,19.479881 L41.2925946,32.4664684 L11.0579657,32.4664684 L11.0579657,19.479881 Z M11.0579657,43.2886245 L41.2925946,43.2886245 L41.2925946,56.2752119 L11.0579657,56.2752119 L11.0579657,43.2886245 Z M11.0579657,67.097368 L41.2925946,67.097368 L41.2925946,80.0839554 L11.0579657,80.0839554 L11.0579657,67.097368 Z M11.0579657,90.9061115 L41.2925946,90.9061115 L41.2925946,103.892699 L11.0579657,103.892699 L11.0579657,90.9061115 Z M11.0579657,114.714855 L41.2925946,114.714855 L41.2925946,127.701442 L11.0579657,127.701442 L11.0579657,114.714855 Z M50.3968071,10.9483735 L2.88524744,10.9483735 L2.88524744,8.43962336 L26.6410273,8.43962336 L50.3968071,8.43962336 L50.3968071,10.9483735 L50.3968071,10.9483735 Z" id="Combined-Shape" fill="#FFFFFF"></path>
                                            </g>
                                        </g>
                                        <rect id="Rectangle" fill="#F2F2F2" x="0" y="220" width="312" height="67"></rect>
                                    </g>
                                </g>
                            </g>
                            <g id="ic">
                                <mask id="mask-4" fill="white">
                                    <use xlink:href="#path-3"></use>
                                </mask>
                                <g id="Mask"></g>
                                <g id="PNG/Light/Winset/Dialog/Permission-icon/perm_group_contacts" mask="url(#mask-4)">
                                    <g transform="translate(54.447917, 87.664429)">
                                        <mask id="mask-6" fill="white">
                                            <use xlink:href="#path-5"></use>
                                        </mask>
                                        <g id="Contact-/-People-/-Phonebook" stroke="none" fill="none" fill-rule="nonzero"></g>
                                        <rect id="Rectangle" stroke="none" fill="#DDDDDD" fill-rule="evenodd" mask="url(#mask-6)" x="-76.4479167" y="-59.6644292" width="358" height="358"></rect>
                                    </g>
                                </g>
                            </g>
                        </g>
                        <g id="Group-3" transform="translate(16.000000, 141.000000)">
                            <g id="visitor/button_bg-" transform="translate(252.000000, 0.500000)" fill="#EDEEEE" opacity="0.65">
                                <circle id="visitor_button_bg" cx="14" cy="14" r="14"></circle>
                            </g>
                            <g id="visitor/button_bg" transform="translate(0.000000, 0.500000)" fill="#EDEEEE" opacity="0.65">
                                <circle id="visitor_button_bg" cx="14" cy="14" r="14"></circle>
                            </g>
                            <g id="Group" fill="#8E8E8E">
                                <g id="Mobile/Light_theme/ICON/04_DIALOG/Date_picker_next" transform="translate(252.000000, 0.000000)">
                                    <polygon id="visitor_button_next" transform="translate(15.500000, 14.000000) scale(-1, 1) translate(-15.500000, -14.000000) " points="18.2259834 8 12 13.9996338 18.2257308 20 18.9994948 19.2546842 13.5477806 13.9996338 19 8.74555996"></polygon>
                                </g>
                                <g id="Mobile/Light_theme/ICON/04_DIALOG/Date_picker_next-">
                                    <polygon id="visitor_button_previous" points="16.2259834 8 10 13.9996338 16.2257308 20 16.9994948 19.2546842 11.5477806 13.9996338 17 8.74555996"></polygon>
                                </g>
                            </g>
                        </g>
                    </g>
                    <path d="M0,0 L312,0 L312,312 L0,312 L0,0 Z" id="Rectangle" stroke="#FF5656" stroke-width="0.5" stroke-dasharray="1,1"></path>
                    <line x1="295.5" y1="312.511429" x2="295.5" y2="142.488571" id="Line-Copy-10" stroke="#FF5656" stroke-width="0.5" stroke-dasharray="1,1"></line>
                    <line x1="311.489655" y1="142.5" x2="16.5103448" y2="142.5" id="Line-Copy-8" stroke="#FF5656" stroke-width="0.5" stroke-dasharray="1,1"></line>
                    <line x1="311.489655" y1="169.5" x2="16.5103448" y2="169.5" id="Line-Copy-8" stroke="#FF5656" stroke-width="0.5" stroke-dasharray="1,1"></line>
                    <g id="@svg-area-copy-2" transform="translate(268.000000, 142.000000)" fill="#36F3F6" opacity="0.4">
                        <rect id="Rectangle" x="0" y="0" width="28" height="28"></rect>
                    </g>
                </g>
            </g>
        </g>
        <g id="serviceplugin/visitorspopup" transform="translate(-688.000000, -2326.000000)">
            <g id="Group-26" transform="translate(400.000000, 2162.000000)">
                <g id="Group-2" transform="translate(20.000000, 23.000000)">
                    <g id="Rectangle">
                        <g id="visitor/image_dummy">
                            <rect id="Background" x="0" y="0" width="312" height="312"></rect>
                            <g id="visitor/image_nodata_bg">
                                <mask id="mask-8" fill="white">
                                    <use xlink:href="#path-7"></use>
                                </mask>
                                <g id="image"></g>
                                <g id="Group" mask="url(#mask-8)">
                                    <g transform="translate(0.000000, 32.000000)">
                                        <g id="Group-2" opacity="0.6" stroke-width="1" fill="none" transform="translate(13.000000, 0.000000)">
                                            <path d="M8.70086714,121.203808 L36.7756501,103.892699 L64.8504331,121.203808 L64.8504331,139.177003 L64.8508922,220.771985 L8.70086714,220.771985 L8.70086714,121.203808 Z" id="Combined-Shape" fill="#F7F7F7"></path>
                                            <g id="Group-4" transform="translate(97.631838, 0.000000)">
                                                <polygon id="Path" fill="#F3F3F3" points="0 220.771985 0 34.0764814 44.273839 0 88.5442702 34.0764814 88.5442702 220.771985"></polygon>
                                                <path d="M51.764924,46.846246 L62.3183212,46.846246 L62.3183212,63.16134 L51.764924,63.16134 L51.764924,46.846246 Z M51.764924,142.08122 L62.3183212,142.08122 L62.3183212,158.396314 L51.764924,158.396314 L51.764924,142.08122 Z M26.0942124,46.846246 L36.6476096,46.846246 L36.6476096,63.16134 L26.0942124,63.16134 L26.0942124,46.846246 Z M26.0942124,142.08122 L36.6476096,142.08122 L36.6476096,158.396314 L26.0942124,158.396314 L26.0942124,142.08122 Z M51.764924,78.3123586 L62.3183212,78.3123586 L62.3183212,94.6274526 L51.764924,94.6274526 L51.764924,78.3123586 Z M51.764924,173.547333 L62.3183212,173.547333 L62.3183212,189.862427 L51.764924,189.862427 L51.764924,173.547333 Z M26.0942124,78.3123586 L36.6476096,78.3123586 L36.6476096,94.6274526 L26.0942124,94.6274526 L26.0942124,78.3123586 Z M26.0942124,173.547333 L36.6476096,173.547333 L36.6476096,189.862427 L26.0942124,189.862427 L26.0942124,173.547333 Z M51.764924,109.778471 L62.3183212,109.778471 L62.3183212,126.093565 L51.764924,126.093565 L51.764924,109.778471 Z M51.764924,205.013445 L62.3183212,205.013445 L62.3183212,221.328539 L51.764924,221.328539 L51.764924,205.013445 Z M26.0942124,109.778471 L36.6476096,109.778471 L36.6476096,126.093565 L26.0942124,126.093565 L26.0942124,109.778471 Z M26.0942124,205.013445 L36.6476096,205.013445 L36.6476096,221.328539 L26.0942124,221.328539 L26.0942124,205.013445 Z" id="Combined-Shape" fill="#FFFFFF" fill-rule="nonzero"></path>
                                            </g>
                                            <rect id="Rectangle" fill="#EFEFEF" fill-rule="nonzero" x="45.8010459" y="54.1107807" width="51.8307923" height="166.661204"></rect>
                                            <path d="M56.8590116,67.097368 L87.0936405,67.097368 L87.0936405,80.0839554 L56.8590116,80.0839554 L56.8590116,67.097368 Z M56.8590116,90.9061115 L87.0936405,90.9061115 L87.0936405,103.892699 L56.8590116,103.892699 L56.8590116,90.9061115 Z M56.8590116,114.714855 L87.0936405,114.714855 L87.0936405,127.701442 L56.8590116,127.701442 L56.8590116,114.714855 Z M56.8590116,138.523599 L87.0936405,138.523599 L87.0936405,151.510186 L56.8590116,151.510186 L56.8590116,138.523599 Z M56.8590116,162.332342 L87.0936405,162.332342 L87.0936405,175.318929 L56.8590116,175.318929 L56.8590116,162.332342 Z M56.8590116,186.141085 L87.0936405,186.141085 L87.0936405,199.127673 L56.8590116,199.127673 L56.8590116,186.141085 Z" id="Combined-Shape" fill="#FFFFFF" fill-rule="nonzero"></path>
                                            <path d="M207.772272,121.203808 L235.847055,103.892699 L263.921838,121.203808 L263.921838,139.177003 L263.922297,220.771985 L207.772272,220.771985 L207.772272,121.203808 Z" id="Combined-Shape-Copy" fill="#F7F7F7"></path>
                                            <g id="Group-3" transform="translate(181.856876, 77.919524)" fill-rule="nonzero">
                                                <path d="M53.9904087,142.852461 L0,142.852461 L0,10.8221561 L26.9964758,10.8221561 L53.9904087,10.8221561 L53.9904087,142.852461 L53.9904087,142.852461 Z M53.9904087,8.65772491 L0,8.65772491 L0,0 L26.9964758,0 L53.9904087,0 L53.9904087,8.65772491 L53.9904087,8.65772491 Z" id="Combined-Shape" fill="#EFEFEF"></path>
                                                <path d="M11.0579657,19.479881 L41.2925946,19.479881 L41.2925946,32.4664684 L11.0579657,32.4664684 L11.0579657,19.479881 Z M11.0579657,43.2886245 L41.2925946,43.2886245 L41.2925946,56.2752119 L11.0579657,56.2752119 L11.0579657,43.2886245 Z M11.0579657,67.097368 L41.2925946,67.097368 L41.2925946,80.0839554 L11.0579657,80.0839554 L11.0579657,67.097368 Z M11.0579657,90.9061115 L41.2925946,90.9061115 L41.2925946,103.892699 L11.0579657,103.892699 L11.0579657,90.9061115 Z M11.0579657,114.714855 L41.2925946,114.714855 L41.2925946,127.701442 L11.0579657,127.701442 L11.0579657,114.714855 Z M50.3968071,10.9483735 L2.88524744,10.9483735 L2.88524744,8.43962336 L26.6410273,8.43962336 L50.3968071,8.43962336 L50.3968071,10.9483735 L50.3968071,10.9483735 Z" id="Combined-Shape" fill="#FFFFFF"></path>
                                            </g>
                                        </g>
                                        <rect id="Rectangle" fill="#F2F2F2" x="0" y="220" width="312" height="67"></rect>
                                    </g>
                                </g>
                            </g>
                            <g id="ic">
                                <mask id="mask-10" fill="white">
                                    <use xlink:href="#path-9"></use>
                                </mask>
                                <g id="Mask"></g>
                                <g id="PNG/Light/Winset/Dialog/Permission-icon/perm_group_contacts" mask="url(#mask-10)">
                                    <g transform="translate(54.447917, 87.664429)">
                                        <mask id="mask-12" fill="white">
                                            <use xlink:href="#path-11"></use>
                                        </mask>
                                        <g id="Contact-/-People-/-Phonebook" stroke="none" fill="none" fill-rule="nonzero"></g>
                                        <rect id="Rectangle" stroke="none" fill="#DDDDDD" fill-rule="evenodd" mask="url(#mask-12)" x="-76.4479167" y="-59.6644292" width="358" height="358"></rect>
                                    </g>
                                </g>
                            </g>
                        </g>
                        <g id="Group-3" transform="translate(16.000000, 141.000000)">
                            <g id="visitor/button_bg-" transform="translate(252.000000, 0.500000)" fill="#EDEEEE" opacity="0.65">
                                <circle id="visitor_button_bg" cx="14" cy="14" r="14"></circle>
                            </g>
                            <g id="visitor/button_bg" transform="translate(0.000000, 0.500000)" fill="#EDEEEE" opacity="0.65">
                                <circle id="visitor_button_bg" cx="14" cy="14" r="14"></circle>
                            </g>
                            <g id="Group" fill="#8E8E8E">
                                <g id="Mobile/Light_theme/ICON/04_DIALOG/Date_picker_next" transform="translate(252.000000, 0.000000)">
                                    <polygon id="visitor_button_next" transform="translate(15.500000, 14.000000) scale(-1, 1) translate(-15.500000, -14.000000) " points="18.2259834 8 12 13.9996338 18.2257308 20 18.9994948 19.2546842 13.5477806 13.9996338 19 8.74555996"></polygon>
                                </g>
                                <g id="Mobile/Light_theme/ICON/04_DIALOG/Date_picker_next-">
                                    <polygon id="visitor_button_previous" points="16.2259834 8 10 13.9996338 16.2257308 20 16.9994948 19.2546842 11.5477806 13.9996338 17 8.74555996"></polygon>
                                </g>
                            </g>
                        </g>
                    </g>
                    <path d="M0,0 L312,0 L312,312 L0,312 L0,0 Z" id="Rectangle" stroke="#FF5656" stroke-width="0.5" stroke-dasharray="1,1"></path>
                    <line x1="295.5" y1="312.511429" x2="295.5" y2="142.488571" id="Line-Copy-10" stroke="#FF5656" stroke-width="0.5" stroke-dasharray="1,1"></line>
                    <line x1="311.489655" y1="142.5" x2="16.5103448" y2="142.5" id="Line-Copy-8" stroke="#FF5656" stroke-width="0.5" stroke-dasharray="1,1"></line>
                    <line x1="311.489655" y1="169.5" x2="16.5103448" y2="169.5" id="Line-Copy-8" stroke="#FF5656" stroke-width="0.5" stroke-dasharray="1,1"></line>
                    <g id="@svg-area-copy-2" transform="translate(268.000000, 142.000000)" fill="#36F3F6" opacity="0.4">
                        <rect id="Rectangle" x="0" y="0" width="28" height="28"></rect>
                    </g>
                </g>
            </g>
            <g id="Group-26" transform="translate(400.000000, 2162.000000)">
                <g id="Group-2" transform="translate(20.000000, 23.000000)">
                    <g id="Rectangle">
                        <g id="visitor/image_dummy">
                            <rect id="Background" x="0" y="0" width="312" height="312"></rect>
                            <g id="visitor/image_nodata_bg">
                                <mask id="mask-14" fill="white">
                                    <use xlink:href="#path-13"></use>
                                </mask>
                                <g id="image"></g>
                                <g id="Group" mask="url(#mask-14)">
                                    <g transform="translate(0.000000, 32.000000)">
                                        <g id="Group-2" opacity="0.6" stroke-width="1" fill="none" transform="translate(13.000000, 0.000000)">
                                            <path d="M8.70086714,121.203808 L36.7756501,103.892699 L64.8504331,121.203808 L64.8504331,139.177003 L64.8508922,220.771985 L8.70086714,220.771985 L8.70086714,121.203808 Z" id="Combined-Shape" fill="#F7F7F7"></path>
                                            <g id="Group-4" transform="translate(97.631838, 0.000000)">
                                                <polygon id="Path" fill="#F3F3F3" points="0 220.771985 0 34.0764814 44.273839 0 88.5442702 34.0764814 88.5442702 220.771985"></polygon>
                                                <path d="M51.764924,46.846246 L62.3183212,46.846246 L62.3183212,63.16134 L51.764924,63.16134 L51.764924,46.846246 Z M51.764924,142.08122 L62.3183212,142.08122 L62.3183212,158.396314 L51.764924,158.396314 L51.764924,142.08122 Z M26.0942124,46.846246 L36.6476096,46.846246 L36.6476096,63.16134 L26.0942124,63.16134 L26.0942124,46.846246 Z M26.0942124,142.08122 L36.6476096,142.08122 L36.6476096,158.396314 L26.0942124,158.396314 L26.0942124,142.08122 Z M51.764924,78.3123586 L62.3183212,78.3123586 L62.3183212,94.6274526 L51.764924,94.6274526 L51.764924,78.3123586 Z M51.764924,173.547333 L62.3183212,173.547333 L62.3183212,189.862427 L51.764924,189.862427 L51.764924,173.547333 Z M26.0942124,78.3123586 L36.6476096,78.3123586 L36.6476096,94.6274526 L26.0942124,94.6274526 L26.0942124,78.3123586 Z M26.0942124,173.547333 L36.6476096,173.547333 L36.6476096,189.862427 L26.0942124,189.862427 L26.0942124,173.547333 Z M51.764924,109.778471 L62.3183212,109.778471 L62.3183212,126.093565 L51.764924,126.093565 L51.764924,109.778471 Z M51.764924,205.013445 L62.3183212,205.013445 L62.3183212,221.328539 L51.764924,221.328539 L51.764924,205.013445 Z M26.0942124,109.778471 L36.6476096,109.778471 L36.6476096,126.093565 L26.0942124,126.093565 L26.0942124,109.778471 Z M26.0942124,205.013445 L36.6476096,205.013445 L36.6476096,221.328539 L26.0942124,221.328539 L26.0942124,205.013445 Z" id="Combined-Shape" fill="#FFFFFF" fill-rule="nonzero"></path>
                                            </g>
                                            <rect id="Rectangle" fill="#EFEFEF" fill-rule="nonzero" x="45.8010459" y="54.1107807" width="51.8307923" height="166.661204"></rect>
                                            <path d="M56.8590116,67.097368 L87.0936405,67.097368 L87.0936405,80.0839554 L56.8590116,80.0839554 L56.8590116,67.097368 Z M56.8590116,90.9061115 L87.0936405,90.9061115 L87.0936405,103.892699 L56.8590116,103.892699 L56.8590116,90.9061115 Z M56.8590116,114.714855 L87.0936405,114.714855 L87.0936405,127.701442 L56.8590116,127.701442 L56.8590116,114.714855 Z M56.8590116,138.523599 L87.0936405,138.523599 L87.0936405,151.510186 L56.8590116,151.510186 L56.8590116,138.523599 Z M56.8590116,162.332342 L87.0936405,162.332342 L87.0936405,175.318929 L56.8590116,175.318929 L56.8590116,162.332342 Z M56.8590116,186.141085 L87.0936405,186.141085 L87.0936405,199.127673 L56.8590116,199.127673 L56.8590116,186.141085 Z" id="Combined-Shape" fill="#FFFFFF" fill-rule="nonzero"></path>
                                            <path d="M207.772272,121.203808 L235.847055,103.892699 L263.921838,121.203808 L263.921838,139.177003 L263.922297,220.771985 L207.772272,220.771985 L207.772272,121.203808 Z" id="Combined-Shape-Copy" fill="#F7F7F7"></path>
                                            <g id="Group-3" transform="translate(181.856876, 77.919524)" fill-rule="nonzero">
                                                <path d="M53.9904087,142.852461 L0,142.852461 L0,10.8221561 L26.9964758,10.8221561 L53.9904087,10.8221561 L53.9904087,142.852461 L53.9904087,142.852461 Z M53.9904087,8.65772491 L0,8.65772491 L0,0 L26.9964758,0 L53.9904087,0 L53.9904087,8.65772491 L53.9904087,8.65772491 Z" id="Combined-Shape" fill="#EFEFEF"></path>
                                                <path d="M11.0579657,19.479881 L41.2925946,19.479881 L41.2925946,32.4664684 L11.0579657,32.4664684 L11.0579657,19.479881 Z M11.0579657,43.2886245 L41.2925946,43.2886245 L41.2925946,56.2752119 L11.0579657,56.2752119 L11.0579657,43.2886245 Z M11.0579657,67.097368 L41.2925946,67.097368 L41.2925946,80.0839554 L11.0579657,80.0839554 L11.0579657,67.097368 Z M11.0579657,90.9061115 L41.2925946,90.9061115 L41.2925946,103.892699 L11.0579657,103.892699 L11.0579657,90.9061115 Z M11.0579657,114.714855 L41.2925946,114.714855 L41.2925946,127.701442 L11.0579657,127.701442 L11.0579657,114.714855 Z M50.3968071,10.9483735 L2.88524744,10.9483735 L2.88524744,8.43962336 L26.6410273,8.43962336 L50.3968071,8.43962336 L50.3968071,10.9483735 L50.3968071,10.9483735 Z" id="Combined-Shape" fill="#FFFFFF"></path>
                                            </g>
                                        </g>
                                        <rect id="Rectangle" fill="#F2F2F2" x="0" y="220" width="312" height="67"></rect>
                                    </g>
                                </g>
                            </g>
                            <g id="ic">
                                <mask id="mask-16" fill="white">
                                    <use xlink:href="#path-15"></use>
                                </mask>
                                <g id="Mask"></g>
                                <g id="PNG/Light/Winset/Dialog/Permission-icon/perm_group_contacts" mask="url(#mask-16)">
                                    <g transform="translate(54.447917, 87.664429)">
                                        <mask id="mask-18" fill="white">
                                            <use xlink:href="#path-17"></use>
                                        </mask>
                                        <g id="Contact-/-People-/-Phonebook" stroke="none" fill="none" fill-rule="nonzero"></g>
                                        <rect id="Rectangle" stroke="none" fill="#DDDDDD" fill-rule="evenodd" mask="url(#mask-18)" x="-76.4479167" y="-59.6644292" width="358" height="358"></rect>
                                    </g>
                                </g>
                            </g>
                        </g>
                        <g id="Group-3" transform="translate(16.000000, 141.000000)">
                            <g id="visitor/button_bg-" transform="translate(252.000000, 0.500000)" fill="#EDEEEE" opacity="0.65">
                                <circle id="visitor_button_bg" cx="14" cy="14" r="14"></circle>
                            </g>
                            <g id="visitor/button_bg" transform="translate(0.000000, 0.500000)" fill="#EDEEEE" opacity="0.65">
                                <circle id="visitor_button_bg" cx="14" cy="14" r="14"></circle>
                            </g>
                            <g id="Group" fill="#8E8E8E">
                                <g id="Mobile/Light_theme/ICON/04_DIALOG/Date_picker_next" transform="translate(252.000000, 0.000000)">
                                    <polygon id="visitor_button_next" transform="translate(15.500000, 14.000000) scale(-1, 1) translate(-15.500000, -14.000000) " points="18.2259834 8 12 13.9996338 18.2257308 20 18.9994948 19.2546842 13.5477806 13.9996338 19 8.74555996"></polygon>
                                </g>
                                <g id="Mobile/Light_theme/ICON/04_DIALOG/Date_picker_next-">
                                    <polygon id="visitor_button_previous" points="16.2259834 8 10 13.9996338 16.2257308 20 16.9994948 19.2546842 11.5477806 13.9996338 17 8.74555996"></polygon>
                                </g>
                            </g>
                        </g>
                    </g>
                    <path d="M0,0 L312,0 L312,312 L0,312 L0,0 Z" id="Rectangle" stroke="#FF5656" stroke-width="0.5" stroke-dasharray="1,1"></path>
                    <line x1="295.5" y1="312.511429" x2="295.5" y2="142.488571" id="Line-Copy-10" stroke="#FF5656" stroke-width="0.5" stroke-dasharray="1,1"></line>
                    <line x1="311.489655" y1="142.5" x2="16.5103448" y2="142.5" id="Line-Copy-8" stroke="#FF5656" stroke-width="0.5" stroke-dasharray="1,1"></line>
                    <line x1="311.489655" y1="169.5" x2="16.5103448" y2="169.5" id="Line-Copy-8" stroke="#FF5656" stroke-width="0.5" stroke-dasharray="1,1"></line>
                    <g id="@svg-area-copy-2" transform="translate(268.000000, 142.000000)" fill="#36F3F6" opacity="0.4">
                        <rect id="Rectangle" x="0" y="0" width="28" height="28"></rect>
                    </g>
                </g>
                <g id="Group-24">
                    <g id="Group-2" transform="translate(20.000000, 23.000000)">
                        <g id="Rectangle">
                            <g id="visitor/image_dummy">
                                <rect id="Background" x="0" y="0" width="312" height="312"></rect>
                                <g id="visitor/image_nodata_bg">
                                    <mask id="mask-20" fill="white">
                                        <use xlink:href="#path-19"></use>
                                    </mask>
                                    <g id="image"></g>
                                    <g id="Group" mask="url(#mask-20)">
                                        <g transform="translate(0.000000, 32.000000)">
                                            <g id="Group-2" opacity="0.6" stroke-width="1" fill="none" transform="translate(13.000000, 0.000000)">
                                                <path d="M8.70086714,121.203808 L36.7756501,103.892699 L64.8504331,121.203808 L64.8504331,139.177003 L64.8508922,220.771985 L8.70086714,220.771985 L8.70086714,121.203808 Z" id="Combined-Shape" fill="#F7F7F7"></path>
                                                <g id="Group-4" transform="translate(97.631838, 0.000000)">
                                                    <polygon id="Path" fill="#F3F3F3" points="0 220.771985 0 34.0764814 44.273839 0 88.5442702 34.0764814 88.5442702 220.771985"></polygon>
                                                    <path d="M51.764924,46.846246 L62.3183212,46.846246 L62.3183212,63.16134 L51.764924,63.16134 L51.764924,46.846246 Z M51.764924,142.08122 L62.3183212,142.08122 L62.3183212,158.396314 L51.764924,158.396314 L51.764924,142.08122 Z M26.0942124,46.846246 L36.6476096,46.846246 L36.6476096,63.16134 L26.0942124,63.16134 L26.0942124,46.846246 Z M26.0942124,142.08122 L36.6476096,142.08122 L36.6476096,158.396314 L26.0942124,158.396314 L26.0942124,142.08122 Z M51.764924,78.3123586 L62.3183212,78.3123586 L62.3183212,94.6274526 L51.764924,94.6274526 L51.764924,78.3123586 Z M51.764924,173.547333 L62.3183212,173.547333 L62.3183212,189.862427 L51.764924,189.862427 L51.764924,173.547333 Z M26.0942124,78.3123586 L36.6476096,78.3123586 L36.6476096,94.6274526 L26.0942124,94.6274526 L26.0942124,78.3123586 Z M26.0942124,173.547333 L36.6476096,173.547333 L36.6476096,189.862427 L26.0942124,189.862427 L26.0942124,173.547333 Z M51.764924,109.778471 L62.3183212,109.778471 L62.3183212,126.093565 L51.764924,126.093565 L51.764924,109.778471 Z M51.764924,205.013445 L62.3183212,205.013445 L62.3183212,221.328539 L51.764924,221.328539 L51.764924,205.013445 Z M26.0942124,109.778471 L36.6476096,109.778471 L36.6476096,126.093565 L26.0942124,126.093565 L26.0942124,109.778471 Z M26.0942124,205.013445 L36.6476096,205.013445 L36.6476096,221.328539 L26.0942124,221.328539 L26.0942124,205.013445 Z" id="Combined-Shape" fill="#FFFFFF" fill-rule="nonzero"></path>
                                                </g>
                                                <rect id="Rectangle" fill="#EFEFEF" fill-rule="nonzero" x="45.8010459" y="54.1107807" width="51.8307923" height="166.661204"></rect>
                                                <path d="M56.8590116,67.097368 L87.0936405,67.097368 L87.0936405,80.0839554 L56.8590116,80.0839554 L56.8590116,67.097368 Z M56.8590116,90.9061115 L87.0936405,90.9061115 L87.0936405,103.892699 L56.8590116,103.892699 L56.8590116,90.9061115 Z M56.8590116,114.714855 L87.0936405,114.714855 L87.0936405,127.701442 L56.8590116,127.701442 L56.8590116,114.714855 Z M56.8590116,138.523599 L87.0936405,138.523599 L87.0936405,151.510186 L56.8590116,151.510186 L56.8590116,138.523599 Z M56.8590116,162.332342 L87.0936405,162.332342 L87.0936405,175.318929 L56.8590116,175.318929 L56.8590116,162.332342 Z M56.8590116,186.141085 L87.0936405,186.141085 L87.0936405,199.127673 L56.8590116,199.127673 L56.8590116,186.141085 Z" id="Combined-Shape" fill="#FFFFFF" fill-rule="nonzero"></path>
                                                <path d="M207.772272,121.203808 L235.847055,103.892699 L263.921838,121.203808 L263.921838,139.177003 L263.922297,220.771985 L207.772272,220.771985 L207.772272,121.203808 Z" id="Combined-Shape-Copy" fill="#F7F7F7"></path>
                                                <g id="Group-3" transform="translate(181.856876, 77.919524)" fill-rule="nonzero">
                                                    <path d="M53.9904087,142.852461 L0,142.852461 L0,10.8221561 L26.9964758,10.8221561 L53.9904087,10.8221561 L53.9904087,142.852461 L53.9904087,142.852461 Z M53.9904087,8.65772491 L0,8.65772491 L0,0 L26.9964758,0 L53.9904087,0 L53.9904087,8.65772491 L53.9904087,8.65772491 Z" id="Combined-Shape" fill="#EFEFEF"></path>
                                                    <path d="M11.0579657,19.479881 L41.2925946,19.479881 L41.2925946,32.4664684 L11.0579657,32.4664684 L11.0579657,19.479881 Z M11.0579657,43.2886245 L41.2925946,43.2886245 L41.2925946,56.2752119 L11.0579657,56.2752119 L11.0579657,43.2886245 Z M11.0579657,67.097368 L41.2925946,67.097368 L41.2925946,80.0839554 L11.0579657,80.0839554 L11.0579657,67.097368 Z M11.0579657,90.9061115 L41.2925946,90.9061115 L41.2925946,103.892699 L11.0579657,103.892699 L11.0579657,90.9061115 Z M11.0579657,114.714855 L41.2925946,114.714855 L41.2925946,127.701442 L11.0579657,127.701442 L11.0579657,114.714855 Z M50.3968071,10.9483735 L2.88524744,10.9483735 L2.88524744,8.43962336 L26.6410273,8.43962336 L50.3968071,8.43962336 L50.3968071,10.9483735 L50.3968071,10.9483735 Z" id="Combined-Shape" fill="#FFFFFF"></path>
                                                </g>
                                            </g>
                                            <rect id="Rectangle" fill="#F2F2F2" x="0" y="220" width="312" height="67"></rect>
                                        </g>
                                    </g>
                                </g>
                                <g id="ic">
                                    <mask id="mask-22" fill="white">
                                        <use xlink:href="#path-21"></use>
                                    </mask>
                                    <g id="Mask"></g>
                                    <g id="PNG/Light/Winset/Dialog/Permission-icon/perm_group_contacts" mask="url(#mask-22)">
                                        <g transform="translate(54.447917, 87.664429)">
                                            <mask id="mask-24" fill="white">
                                                <use xlink:href="#path-23"></use>
                                            </mask>
                                            <g id="Contact-/-People-/-Phonebook" stroke="none" fill="none" fill-rule="nonzero"></g>
                                            <rect id="Rectangle" stroke="none" fill="#DDDDDD" fill-rule="evenodd" mask="url(#mask-24)" x="-76.4479167" y="-59.6644292" width="358" height="358"></rect>
                                        </g>
                                    </g>
                                </g>
                            </g>
                            <g id="Group-3" transform="translate(16.000000, 141.000000)">
                                <g id="visitor/button_bg-" transform="translate(252.000000, 0.500000)" fill="#EDEEEE" opacity="0.65">
                                    <circle id="visitor_button_bg" cx="14" cy="14" r="14"></circle>
                                </g>
                                <g id="visitor/button_bg" transform="translate(0.000000, 0.500000)" fill="#EDEEEE" opacity="0.65">
                                    <circle id="visitor_button_bg" cx="14" cy="14" r="14"></circle>
                                </g>
                                <g id="Group" fill="#8E8E8E">
                                    <g id="Mobile/Light_theme/ICON/04_DIALOG/Date_picker_next" transform="translate(252.000000, 0.000000)">
                                        <polygon id="visitor_button_next" transform="translate(15.500000, 14.000000) scale(-1, 1) translate(-15.500000, -14.000000) " points="18.2259834 8 12 13.9996338 18.2257308 20 18.9994948 19.2546842 13.5477806 13.9996338 19 8.74555996"></polygon>
                                    </g>
                                    <g id="Mobile/Light_theme/ICON/04_DIALOG/Date_picker_next-">
                                        <polygon id="visitor_button_previous" points="16.2259834 8 10 13.9996338 16.2257308 20 16.9994948 19.2546842 11.5477806 13.9996338 17 8.74555996"></polygon>
                                    </g>
                                </g>
                            </g>
                        </g>
                        <path d="M0,0 L312,0 L312,312 L0,312 L0,0 Z" id="Rectangle" stroke="#FF5656" stroke-width="0.5" stroke-dasharray="1,1"></path>
                        <line x1="295.5" y1="312.511429" x2="295.5" y2="142.488571" id="Line-Copy-10" stroke="#FF5656" stroke-width="0.5" stroke-dasharray="1,1"></line>
                        <line x1="311.489655" y1="142.5" x2="16.5103448" y2="142.5" id="Line-Copy-8" stroke="#FF5656" stroke-width="0.5" stroke-dasharray="1,1"></line>
                        <line x1="311.489655" y1="169.5" x2="16.5103448" y2="169.5" id="Line-Copy-8" stroke="#FF5656" stroke-width="0.5" stroke-dasharray="1,1"></line>
                        <g id="@svg-area-copy-2" transform="translate(268.000000, 142.000000)" fill="#36F3F6" opacity="0.4">
                            <rect id="Rectangle" x="0" y="0" width="28" height="28"></rect>
                        </g>
                    </g>
                    <g id="Group-2" transform="translate(20.000000, 23.000000)">
                        <g id="Rectangle">
                            <g id="visitor/image_dummy">
                                <rect id="Background" x="0" y="0" width="312" height="312"></rect>
                                <g id="visitor/image_nodata_bg">
                                    <mask id="mask-26" fill="white">
                                        <use xlink:href="#path-25"></use>
                                    </mask>
                                    <g id="image"></g>
                                    <g id="Group" mask="url(#mask-26)" opacity="0.6">
                                        <g transform="translate(0.000000, 32.000000)" id="Group-2">
                                            <g transform="translate(13.000000, 0.000000)">
                                                <path d="M207.772272,121.203808 L235.847055,103.892699 L263.921838,121.203808 L263.921838,139.177003 L263.922297,220.771985 L207.772272,220.771985 L207.772272,121.203808 Z" id="Combined-Shape-Copy" fill="#F7F7F7"></path>
                                            </g>
                                        </g>
                                    </g>
                                </g>
                                <g id="ic">
                                    <mask id="mask-28" fill="white">
                                        <use xlink:href="#path-27"></use>
                                    </mask>
                                    <g id="Mask"></g>
                                </g>
                            </g>
                            <g id="Group-3" transform="translate(16.000000, 141.000000)">
                                <g id="visitor/button_bg-" transform="translate(252.000000, 0.500000)" fill="#EDEEEE" opacity="0.65">
                                    <circle id="visitor_button_bg" cx="14" cy="14" r="14"></circle>
                                </g>
                                <g id="Mobile/Light_theme/ICON/04_DIALOG/Date_picker_next" fill="#8E8E8E" transform="translate(252.000000, 0.000000)">
                                    <polygon id="visitor_button_next" transform="translate(15.500000, 14.000000) scale(-1, 1) translate(-15.500000, -14.000000) " points="18.2259834 8 12 13.9996338 18.2257308 20 18.9994948 19.2546842 13.5477806 13.9996338 19 8.74555996"></polygon>
                                </g>
                            </g>
                        </g>
                        <g id="Visitors-_-Popup-/-photo-info-/-pop---detail-@1115">
                            <g id="Rectangle">
                                <g id="visitor/image_dummy">
                                    <rect id="Background" x="0" y="0" width="312" height="312"></rect>
                                    <g id="visitor/image_nodata_bg">
                                        <mask id="mask-30" fill="white">
                                            <use xlink:href="#path-29"></use>
                                        </mask>
                                        <g id="image"></g>
                                        <g id="Group" mask="url(#mask-30)" opacity="0.6">
                                            <g transform="translate(0.000000, 32.000000)" id="Group-2">
                                                <g transform="translate(13.000000, 0.000000)">
                                                    <path d="M207.772272,121.203808 L235.847055,103.892699 L263.921838,121.203808 L263.921838,139.177003 L263.922297,220.771985 L207.772272,220.771985 L207.772272,121.203808 Z" id="Combined-Shape-Copy" fill="#F7F7F7"></path>
                                                </g>
                                            </g>
                                        </g>
                                    </g>
                                    <g id="ic">
                                        <mask id="mask-32" fill="white">
                                            <use xlink:href="#path-31"></use>
                                        </mask>
                                        <g id="Mask"></g>
                                    </g>
                                </g>
                                <g id="Group-3" transform="translate(16.000000, 141.000000)">
                                    <g id="visitor/button_bg-" transform="translate(252.000000, 0.500000)" fill="#EDEEEE" opacity="0.65">
                                        <circle id="visitor_button_bg" cx="14" cy="14" r="14"></circle>
                                    </g>
                                    <g id="Mobile/Light_theme/ICON/04_DIALOG/Date_picker_next" fill="#8E8E8E" transform="translate(252.000000, 0.000000)">
                                        <polygon id="visitor_button_next" transform="translate(15.500000, 14.000000) scale(-1, 1) translate(-15.500000, -14.000000) " points="18.2259834 8 12 13.9996338 18.2257308 20 18.9994948 19.2546842 13.5477806 13.9996338 19 8.74555996"></polygon>
                                    </g>
                                </g>
                            </g>
                            <g id="Rectangle">
                                <g id="visitor/image_dummy">
                                    <rect id="Background" x="0" y="0" width="312" height="312"></rect>
                                    <g id="visitor/image_nodata_bg">
                                        <mask id="mask-34" fill="white">
                                            <use xlink:href="#path-33"></use>
                                        </mask>
                                        <g id="image"></g>
                                        <g id="Group" mask="url(#mask-34)" opacity="0.6">
                                            <g transform="translate(0.000000, 32.000000)" id="Group-2">
                                                <g transform="translate(13.000000, 0.000000)">
                                                    <path d="M207.772272,121.203808 L235.847055,103.892699 L263.921838,121.203808 L263.921838,139.177003 L263.922297,220.771985 L207.772272,220.771985 L207.772272,121.203808 Z" id="Combined-Shape-Copy" fill="#F7F7F7"></path>
                                                </g>
                                            </g>
                                        </g>
                                    </g>
                                    <g id="ic">
                                        <mask id="mask-36" fill="white">
                                            <use xlink:href="#path-35"></use>
                                        </mask>
                                        <g id="Mask"></g>
                                    </g>
                                </g>
                                <g id="Group-3" transform="translate(16.000000, 141.000000)">
                                    <g id="visitor/button_bg-" transform="translate(252.000000, 0.500000)" fill="#EDEEEE" opacity="0.65">
                                        <circle id="visitor_button_bg" cx="14" cy="14" r="14"></circle>
                                    </g>
                                    <g id="Mobile/Light_theme/ICON/04_DIALOG/Date_picker_next" fill="#8E8E8E" transform="translate(252.000000, 0.000000)">
                                        <polygon id="visitor_button_next" transform="translate(15.500000, 14.000000) scale(-1, 1) translate(-15.500000, -14.000000) " points="18.2259834 8 12 13.9996338 18.2257308 20 18.9994948 19.2546842 13.5477806 13.9996338 19 8.74555996"></polygon>
                                    </g>
                                </g>
                                <g id="Group-3" transform="translate(16.000000, 141.000000)">
                                    <g id="visitor/button_bg-" transform="translate(252.000000, 0.500000)" fill="#EDEEEE" opacity="0.65">
                                        <circle id="visitor_button_bg" cx="14" cy="14" r="14"></circle>
                                    </g>
                                    <g id="visitor/button_bg-" transform="translate(252.000000, 0.500000)" fill="#EDEEEE" opacity="0.65">
                                        <circle id="visitor_button_bg" cx="14" cy="14" r="14"></circle>
                                    </g>
                                    <g id="Mobile/Light_theme/ICON/04_DIALOG/Date_picker_next" fill="#8E8E8E" transform="translate(252.000000, 0.000000)">
                                        <polygon id="visitor_button_next" transform="translate(15.500000, 14.000000) scale(-1, 1) translate(-15.500000, -14.000000) " points="18.2259834 8 12 13.9996338 18.2257308 20 18.9994948 19.2546842 13.5477806 13.9996338 19 8.74555996"></polygon>
                                    </g>
                                </g>
                            </g>
                        </g>
                        <path d="M0,0 L312,0 L312,312 L0,312 L0,0 Z" id="Rectangle" stroke="#FF5656" stroke-width="0.5" stroke-dasharray="1,1"></path>
                        <line x1="295.5" y1="312.511429" x2="295.5" y2="142.488571" id="Line-Copy-10" stroke="#FF5656" stroke-width="0.5" stroke-dasharray="1,1"></line>
                        <line x1="311.489655" y1="142.5" x2="16.5103448" y2="142.5" id="Line-Copy-8" stroke="#FF5656" stroke-width="0.5" stroke-dasharray="1,1"></line>
                        <line x1="311.489655" y1="169.5" x2="16.5103448" y2="169.5" id="Line-Copy-8" stroke="#FF5656" stroke-width="0.5" stroke-dasharray="1,1"></line>
                        <g id="@svg-area-copy-2" transform="translate(268.000000, 142.000000)" fill="#36F3F6" opacity="0.4">
                            <rect id="Rectangle" x="0" y="0" width="28" height="28"></rect>
                        </g>
                    </g>
                </g>
            </g>
        </g>
    </g>
</svg>